<?xml version="1.0" encoding="UTF-8"?>
<svg width="32" height="32" viewBox="0 0 37 33" xmlns="http://www.w3.org/2000/svg">
  <title>Workmates</title>
  <path d="M21.906148,18.0877155 L16.4752194,16.5985281 L16.3829678,16.5741413 C16.3005632,16.5513449 16.222823,16.5412721 16.151302,16.5412721 C15.8470788,16.5412721 15.64029,16.7135704 15.5547758,16.8005147 C15.4500857,16.9076047 15.2189382,17.2050181 15.3329571,17.6450414 L16.3010814,21.3407072 C16.3015997,21.3417675 16.3015997,21.3422977 16.3015997,21.3428278 L18.8058699,30.9029973 C18.9209253,31.3440809 19.2676465,31.48351 19.4117249,31.522741 C19.5552851,31.561972 19.9232553,31.6186979 20.2388804,31.2958374 L24.282406,27.1596181 C24.4980054,26.9385461 24.5830013,26.6146254 24.5042246,26.313501 L23.60503,22.8807889 C23.5303994,22.6713802 23.4723534,22.4540192 23.4345198,22.2297664 L22.5120031,18.706929 C22.4332264,18.4058046 22.2005241,18.1682981 21.906148,18.0877155" fill="#B3D238"/>
  <path d="M24.2621417,16.9166173 L27.6189625,17.8364251 C27.9128203,17.8804274 28.1957946,17.9578291 28.4632208,18.0681 L31.6977303,18.9545084 C31.9926247,19.035091 32.3092863,18.9481466 32.5248857,18.7276048 L36.5684113,14.5913856 C36.8840364,14.2685251 36.8291001,13.8921196 36.79023,13.7452684 C36.7518781,13.5984173 36.616092,13.2437479 36.1848931,13.1260549 L23.2256061,9.5735292 C23.1437198,9.55073281 23.0659796,9.54172028 22.9944586,9.54172028 C22.6902354,9.54172028 22.4829283,9.71348843 22.3979323,9.80043279 C22.292724,9.90805296 22.0615765,10.2054663 22.1761137,10.6454896 L23.144238,14.3411554 C23.144238,14.3416856 23.144238,14.3422157 23.1447563,14.343276 L23.6562866,16.2968736 C23.7350633,16.597998 23.9677656,16.8360347 24.2621417,16.9166173" fill="#DDE279"/>
  <path d="M16.9188049,14.9036961 L20.4378434,15.8680364 C20.8695605,15.9862595 21.1603088,15.7492831 21.2655171,15.6416629 C21.3702072,15.5340428 21.601873,15.2366294 21.4873358,14.7966061 L20.5192115,11.1009403 C20.5192115,11.1004101 20.5192115,11.09988 20.5186932,11.0988197 L18.0144231,1.53918039 C17.8993676,1.09809677 17.5526464,0.958667688 17.408568,0.919436693 C17.3572594,0.905122681 17.2753731,0.888688075 17.1779388,0.888688075 C17.0058739,0.888688075 16.7825004,0.940112488 16.5814125,1.14634029 L12.5378869,5.28255956 C12.3222875,5.50310137 12.2372916,5.82702216 12.3160683,6.1286767 L14.3088081,13.7347185 C14.3875848,14.0358429 14.6192505,14.2738796 14.9146632,14.3544622 L16.8265532,14.878249 L16.9188049,14.9036961 Z" fill="#30AEB7"/>
  <path d="M12.5580475,15.5254544 L5.12245897,13.487033 C5.04990147,13.4674175 4.97578918,13.4578749 4.90219514,13.4578749 C4.67726691,13.4578749 4.45752135,13.5480001 4.29530352,13.7139366 L0.251777912,17.8501559 C-0.0638471963,18.1730164 -0.00839253854,18.5494219 0.0299592808,18.6962731 C0.0683111002,18.8436544 0.204615539,19.1983238 0.635814373,19.3160168 L13.5945832,22.8685424 C14.0263003,22.9862354 14.3170485,22.7487288 14.4222569,22.6416388 C14.5274653,22.5340187 14.7586127,22.2366053 14.6440755,21.796582 L13.6759512,18.1009162 L13.6759512,18.0987956 L13.1639026,16.1451981 C13.0851259,15.8435435 12.8524236,15.6060369 12.5580475,15.5254544" fill="#79DBDB"/>
  <path d="M9.71011397,8.78525127 C8.61294097,8.78525127 7.72048377,9.69869728 7.72048377,10.8210218 C7.72048377,11.9433464 8.61294097,12.8562623 9.71011397,12.8562623 C10.807287,12.8562623 11.7002624,11.9433464 11.7002624,10.8210218 C11.7002624,9.69869728 10.807287,8.78525127 9.71011397,8.78525127" fill="#62CBD3"/>
  <path d="M25.0921477,21.5828261 C25.0921477,21.6745418 25.1004399,21.7641369 25.1113236,21.8526717 L25.2471097,22.3700967 C25.5492599,23.1027621 26.257732,23.6180665 27.0822961,23.6180665 C28.1794691,23.6180665 29.0724446,22.7051506 29.0724446,21.5828261 C29.0724446,20.7610958 28.5930468,20.0533474 27.9068602,19.7320774 L27.2652447,19.5565982 C27.2051256,19.5507665 27.14397,19.5470555 27.0822961,19.5470555 C25.9851231,19.5470555 25.0921477,20.4605015 25.0921477,21.5828261" fill="#CCE075"/>
</svg>
