<?xml version="1.0" encoding="UTF-8"?>
<svg width="188px" height="33px" viewBox="0 0 188 33" version="1.1" xmlns="http://www.w3.org/2000/svg" xmlns:xlink="http://www.w3.org/1999/xlink">
    <title>wm logo@</title>
    <defs>
        <polygon id="path-1" points="0 0 12.862371 0 12.862371 13.0139815 0 13.0139815"></polygon>
        <polygon id="path-3" points="0 0 9.43553227 0 9.43553227 12.9414571 0 12.9414571"></polygon>
    </defs>
    <g id="Copy-updates_Jun-1,-2020" stroke="none" stroke-width="1" fill="none" fill-rule="evenodd">
        <g id="Workmates_option1-Copy-14" transform="translate(-128.000000, -30.000000)">
            <g id="Page"></g>
            <g id="wm-logo" transform="translate(128.000000, 30.000000)">
                <path d="M53.2284417,27.5796548 L53.2284417,27.5542077 C53.2284417,26.256404 52.3707084,25.403925 51.3502391,25.403925 C50.330288,25.403925 49.4347212,26.2685974 49.4347212,27.5542077 L49.4347212,27.5796548 C49.4347212,28.864735 50.330288,29.7304676 51.3502391,29.7304676 C52.3826286,29.7304676 53.2284417,28.9029057 53.2284417,27.5796548 L53.2284417,27.5796548 Z M47.9669867,22.3370155 C47.9669867,21.9044142 48.2903858,21.5736015 48.7132923,21.5736015 C49.1361989,21.5736015 49.4720364,21.9044142 49.4720364,22.3370155 L49.4720364,25.3275836 C49.9571351,24.6277875 50.6412487,24.0674204 51.7109535,24.0674204 C53.2538368,24.0674204 54.7588866,25.3148601 54.7588866,27.5542077 L54.7588866,27.5796548 C54.7588866,29.8062789 53.265757,31.0659119 51.7109535,31.0659119 C50.6163718,31.0659119 49.9322583,30.5066052 49.4720364,29.8831504 L49.4720364,30.2261566 C49.4720364,30.6460342 49.1361989,30.9901007 48.7132923,30.9901007 C48.3028242,30.9901007 47.9669867,30.6460342 47.9669867,30.2261566 L47.9669867,22.3370155 Z" id="Fill-1" fill="#8B959C"></path>
                <path d="M56.5243141,32.8096767 C56.2999041,32.7328051 56.0516538,32.5419516 56.0516538,32.1734984 C56.0516538,31.7912612 56.3377377,31.5373201 56.6611368,31.5373201 C56.7855211,31.5373201 56.8596334,31.562237 56.9347822,31.5876842 C57.1089202,31.6385784 57.2457429,31.6767491 57.4571962,31.6767491 C57.9049796,31.6767491 58.1413097,31.4858956 58.3905966,30.9647596 L58.439832,30.8242702 L56.0019001,25.2508181 C55.9521464,25.136306 55.9148311,24.9836232 55.9148311,24.8818347 C55.9148311,24.4492335 56.2382303,24.1311443 56.6611368,24.1311443 C57.0467281,24.1311443 57.2581813,24.3601685 57.3950041,24.7164283 L59.1612608,29.1829302 L60.8036516,24.7164283 C60.9280358,24.3983392 61.1389709,24.1311443 61.5245621,24.1311443 C61.9231101,24.1311443 62.2465092,24.4492335 62.2465092,24.8563876 C62.2465092,24.9836232 62.2091939,25.1495597 62.1843171,25.225371 L59.7831822,31.1174424 C59.223453,32.4910574 58.6269267,33 57.569142,33 C57.1462355,33 56.8352748,32.9363822 56.5243141,32.8096767" id="Fill-3" fill="#8B959C"></path>
                <path d="M68.0795618,22.7316581 C68.0795618,22.2990568 68.4153993,21.9549904 68.8507443,21.9549904 C69.2741691,21.9549904 69.6094884,22.2990568 69.6094884,22.7316581 L69.6094884,25.7222262 L73.7644416,25.7222262 L73.7644416,22.7316581 C73.7644416,22.2990568 74.1002792,21.9549904 74.523704,21.9549904 C74.9585307,21.9549904 75.2943682,22.2990568 75.2943682,22.7316581 L75.2943682,30.2136451 C75.2943682,30.6462463 74.9585307,30.9897826 74.523704,30.9897826 C74.1002792,30.9897826 73.7644416,30.6462463 73.7644416,30.2136451 L73.7644416,27.1721826 L69.6094884,27.1721826 L69.6094884,30.2136451 C69.6094884,30.6462463 69.2741691,30.9897826 68.8507443,30.9897826 C68.4153993,30.9897826 68.0795618,30.6462463 68.0795618,30.2136451 L68.0795618,22.7316581 Z" id="Fill-5" fill="#8B959C"></path>
                <path d="M81.550431,26.4344278 C82.6450127,26.4344278 83.3415647,25.8491438 83.3415647,24.9452405 L83.3415647,24.9203235 C83.3415647,23.966056 82.6698896,23.4438597 81.5385109,23.4438597 L79.311514,23.4438597 L79.311514,26.4344278 L81.550431,26.4344278 Z M77.7815874,22.8076814 C77.7815874,22.3623566 78.1174249,22.0188203 78.5527699,22.0188203 L81.6623769,22.0188203 C82.7569585,22.0188203 83.6152101,22.349633 84.1749393,22.91 C84.6356794,23.3934956 84.8968864,24.055121 84.8968864,24.8312585 L84.8968864,24.8561755 C84.8968864,26.2817451 84.0878703,27.1469475 82.9191764,27.515931 L84.5854074,29.6667438 C84.7351869,29.8570671 84.8346943,30.0230036 84.8346943,30.2647514 C84.8346943,30.6973526 84.4739799,30.9899947 84.100827,30.9899947 C83.752551,30.9899947 83.5281411,30.8240581 83.3540031,30.5823104 L81.2394703,27.8212966 L79.311514,27.8212966 L79.311514,30.2138571 C79.311514,30.6459282 78.9756765,30.9899947 78.5527699,30.9899947 C78.1174249,30.9899947 77.7815874,30.6459282 77.7815874,30.2138571 L77.7815874,22.8076814 Z" id="Fill-7" fill="#8B959C"></path>
                <path d="M90.6171121,26.4980987 L90.6171121,26.4726516 C90.6171121,23.9406619 92.4704379,21.8661905 95.1079028,21.8661905 C96.4512531,21.8661905 97.3343814,22.2733446 98.0936438,22.8713522 C98.2548251,22.9985879 98.3916478,23.2154186 98.3916478,23.494807 C98.3916478,23.9274082 98.0563285,24.2582209 97.6329037,24.2582209 C97.4214504,24.2582209 97.2721893,24.1824097 97.1726819,24.1055381 C96.5756373,23.6098492 95.9288391,23.3044836 95.0954644,23.3044836 C93.4406352,23.3044836 92.2221876,24.7035457 92.2221876,26.4466743 L92.2221876,26.4726516 C92.2221876,28.2157801 93.4287151,29.6280959 95.0954644,29.6280959 C96.0159081,29.6280959 96.6378295,29.3227304 97.2721893,28.775617 C97.3846534,28.6738285 97.5458347,28.5974871 97.7324111,28.5974871 C98.1185207,28.5974871 98.4538399,28.9282998 98.4538399,29.3227304 C98.4538399,29.5644781 98.3418941,29.7558618 98.2055897,29.8830974 C97.3846534,30.6205341 96.4512531,31.0791126 95.0457107,31.0791126 C92.5077531,31.0791126 90.6171121,29.0555355 90.6171121,26.4980987" id="Fill-9" fill="#8B959C"></path>
                <path d="M100.344222,22.3371745 C100.344222,21.9172968 100.667621,21.5737605 101.090528,21.5737605 C101.513434,21.5737605 101.849272,21.9172968 101.849272,22.3371745 L101.849272,30.2263156 C101.849272,30.6589169 101.513434,30.9897296 101.090528,30.9897296 C100.680059,30.9897296 100.344222,30.6589169 100.344222,30.2263156 L100.344222,22.3371745 Z" id="Fill-11" fill="#8B959C"></path>
                <path d="M109.200849,27.6049959 L109.200849,27.5795488 C109.200849,26.3962572 108.367474,25.4165426 107.185305,25.4165426 C105.978778,25.4165426 105.207595,26.3835336 105.207595,27.5541017 L105.207595,27.5795488 C105.207595,28.7501169 106.04097,29.7303616 107.210182,29.7303616 C108.429666,29.7303616 109.200849,28.7633706 109.200849,27.6049959 M103.702546,27.6049959 L103.702546,27.5795488 C103.702546,25.6582903 105.195157,24.0673144 107.210182,24.0673144 C109.225726,24.0673144 110.705899,25.6328432 110.705899,27.5541017 L110.705899,27.5795488 C110.705899,29.4886139 109.212769,31.0790596 107.185305,31.0790596 C105.182718,31.0790596 103.702546,29.514061 103.702546,27.6049959" id="Fill-13" fill="#8B959C"></path>
                <path d="M118.318113,30.2262096 C118.318113,30.6460873 117.982275,30.9896235 117.559369,30.9896235 C117.148901,30.9896235 116.800625,30.6588108 116.800625,30.2262096 L116.800625,29.8832034 C116.377718,30.5193818 115.768235,31.0659649 114.747766,31.0659649 C113.267593,31.0659649 112.409341,30.0480797 112.409341,28.483081 L112.409341,24.907759 C112.409341,24.4746276 112.745179,24.1310913 113.155647,24.1310913 C113.578554,24.1310913 113.914391,24.4746276 113.914391,24.907759 L113.914391,28.0250327 C113.914391,29.0683651 114.424367,29.6536491 115.320452,29.6536491 C116.191142,29.6536491 116.800625,29.0429179 116.800625,27.9995855 L116.800625,24.907759 C116.800625,24.4746276 117.136462,24.1310913 117.559369,24.1310913 C117.969837,24.1310913 118.318113,24.4746276 118.318113,24.907759 L118.318113,30.2262096 Z" id="Fill-15" fill="#8B959C"></path>
                <path d="M121.626113,27.5542607 L121.626113,27.5797078 C121.626113,28.8775116 122.496803,29.7299905 123.516754,29.7299905 C124.524785,29.7299905 125.419833,28.864788 125.419833,27.5797078 L125.419833,27.5542607 C125.419833,26.256457 124.524785,25.4034479 123.516754,25.4034479 C122.484364,25.4034479 121.626113,26.2177561 121.626113,27.5542607 L121.626113,27.5542607 Z M126.900525,30.2262096 C126.900525,30.6588108 126.564169,30.9896235 126.153701,30.9896235 C125.731312,30.9896235 125.394957,30.6588108 125.394957,30.2262096 L125.394957,29.8063319 C124.909858,30.506128 124.226263,31.0659649 123.156039,31.0659649 C121.613674,31.0659649 120.108106,29.8063319 120.108106,27.5797078 L120.108106,27.5542607 C120.108106,25.3276366 121.588798,24.0674735 123.156039,24.0674735 C124.238183,24.0674735 124.922296,24.6145868 125.394957,25.2507651 L125.394957,22.3370685 C125.394957,21.9044672 125.731312,21.5736545 126.14178,21.5736545 C126.564169,21.5736545 126.900525,21.9044672 126.900525,22.3370685 L126.900525,30.2262096 Z" id="Fill-17" fill="#8B959C"></path>
                <path d="M46.7703062,1.63598552 C46.7174429,1.51034031 46.682719,1.34811484 46.682719,1.20444457 C46.682719,0.593183253 47.191658,0.1255922 47.7897391,0.1255922 C48.3162992,0.1255922 48.7210664,0.467538038 48.8615169,0.935129091 L51.6902228,9.58026209 L54.4671018,0.970649046 C54.6422763,0.449512986 55.011283,0.0900722448 55.5565008,0.0900722448 L55.7145724,0.0900722448 C56.2592719,0.0900722448 56.6458997,0.449512986 56.8039714,0.970649046 L59.5803322,9.58026209 L62.4095563,0.917104039 C62.5671097,0.467538038 62.9361164,0.1255922 63.4631948,0.1255922 C64.0431365,0.1255922 64.5354909,0.593183253 64.5354909,1.18641952 C64.5354909,1.33008979 64.4826276,1.51034031 64.4302825,1.63598552 L60.7925606,12.0608273 C60.599765,12.6185436 60.1949978,12.9779844 59.6679194,12.9779844 L59.4569844,12.9779844 C58.9304243,12.9779844 58.5432783,12.6360385 58.3504826,12.0608273 L55.6088458,3.84670513 L52.8682455,12.0608273 C52.6749316,12.6360385 52.2701645,12.9779844 51.7436043,12.9779844 L51.5321511,12.9779844 C51.0050727,12.9779844 50.6189631,12.6360385 50.4080281,12.0608273 L46.7703062,1.63598552 Z" id="Fill-19" fill="#596872"></path>
                <g id="Group-23" transform="translate(68.314544, 0.000000)">
                    <mask id="mask-2" fill="white">
                        <use xlink:href="#path-1"></use>
                    </mask>
                    <g id="Clip-22"></g>
                    <path d="M10.5954675,6.54298782 L10.5954675,6.50693772 C10.5954675,4.06242259 8.85616067,2.0308932 6.41356439,2.0308932 C3.97096811,2.0308932 2.26638522,4.02637248 2.26638522,6.47088761 L2.26638522,6.50693772 C2.26638522,8.95145285 4.00569205,10.964427 6.4488066,10.964427 C8.89088461,10.964427 10.5954675,8.98750295 10.5954675,6.54298782 M0,6.54298782 L0,6.50693772 C0,2.96607531 2.67063412,-0.000106029717 6.4488066,-0.000106029717 C10.2264608,-0.000106029717 12.862371,2.93002521 12.862371,6.47088761 L12.862371,6.50693772 C12.862371,10.0478001 10.1912186,13.0139815 6.41356439,13.0139815 C2.63591018,13.0139815 0,10.0838502 0,6.54298782" id="Fill-21" fill="#596872" mask="url(#mask-2)"></path>
                </g>
                <path d="M91.580261,6.45291558 C93.126254,6.45291558 94.1104446,5.62588378 94.1104446,4.34981613 L94.1104446,4.31429618 C94.1104446,2.96612832 93.1620144,2.22922179 91.5626399,2.22922179 L88.4167542,2.22922179 L88.4167542,6.45291558 L91.580261,6.45291558 Z M86.2560956,1.33008979 C86.2560956,0.700803416 86.7303107,0.21571746 87.3454946,0.21571746 L91.7383327,0.21571746 C93.2848439,0.21571746 94.4970724,0.683308513 95.2879491,1.47376005 C95.9378569,2.15659143 96.3068636,3.09177354 96.3068636,4.18865096 L96.3068636,4.22417092 C96.3068636,6.23767525 95.1646013,7.45913759 93.5128818,7.9808038 L95.8673725,11.0185552 C96.0788258,11.2884008 96.2187581,11.5221964 96.2187581,11.863612 C96.2187581,12.4743432 95.7093008,12.8878591 95.1822224,12.8878591 C94.6903863,12.8878591 94.3742429,12.6540636 94.1280657,12.3126479 L91.1407699,8.41234475 L88.4167542,8.41234475 L88.4167542,11.7909817 C88.4167542,12.4027732 87.9425391,12.8878591 87.3454946,12.8878591 C86.7303107,12.8878591 86.2560956,12.4027732 86.2560956,11.7909817 L86.2560956,1.33008979 Z" id="Fill-24" fill="#596872"></path>
                <path d="M101.771998,1.2223636 C101.771998,0.611632424 102.246213,0.126016319 102.861915,0.126016319 C103.45896,0.126016319 103.933175,0.611632424 103.933175,1.2223636 L103.933175,6.54293481 L109.767316,0.539532216 C110.012975,0.269686586 110.276773,0.126016319 110.663401,0.126016319 C111.260964,0.126016319 111.664694,0.611632424 111.664694,1.15026339 C111.664694,1.49220923 111.524244,1.74349966 111.278585,1.97729518 L107.447549,5.75195312 L111.594728,11.0189793 C111.770421,11.2522447 111.89325,11.4680152 111.89325,11.8094309 C111.89325,12.4206922 111.419035,12.8877531 110.803851,12.8877531 C110.3825,12.8877531 110.118183,12.6725128 109.890145,12.366617 L105.93628,7.20774113 L103.933175,9.18519536 L103.933175,11.7914058 C103.933175,12.4026671 103.45896,12.8877531 102.861915,12.8877531 C102.246213,12.8877531 101.771998,12.4026671 101.771998,11.7914058 L101.771998,1.2223636 Z" id="Fill-26" fill="#596872"></path>
                <path d="M117.464785,1.25857274 C117.464785,0.647311424 117.939,0.143670267 118.554184,0.143670267 L118.782222,0.143670267 C119.256955,0.143670267 119.573099,0.395490845 119.784034,0.737436683 L123.509343,6.70425902 L127.252273,0.718881483 C127.480311,0.341945838 127.796972,0.143670267 128.235945,0.143670267 L128.46502,0.143670267 C129.079167,0.143670267 129.5539,0.647311424 129.5539,1.25857274 L129.5539,11.7910347 C129.5539,12.4028262 129.079167,12.8879121 128.46502,12.8879121 C127.88456,12.8879121 127.392205,12.384271 127.392205,11.7910347 L127.392205,4.24224899 L124.387288,8.86143362 C124.159251,9.22140451 123.878349,9.43664483 123.4741,9.43664483 C123.087991,9.43664483 122.806571,9.22140451 122.577497,8.86143362 L119.591238,4.27776894 L119.591238,11.8090598 C119.591238,12.4208512 119.116505,12.8879121 118.518423,12.8879121 C117.921379,12.8879121 117.464785,12.4208512 117.464785,11.8090598 L117.464785,1.25857274 Z" id="Fill-28" fill="#596872"></path>
                <path d="M143.225339,7.80103042 L141.064162,2.71425473 L138.902467,7.80103042 L143.225339,7.80103042 Z M135.177676,11.3599179 L139.746207,0.935076076 C139.992385,0.377359764 140.431357,0.0364742227 141.046541,0.0364742227 L141.15175,0.0364742227 C141.766934,0.0364742227 142.188804,0.377359764 142.434981,0.935076076 L147.003512,11.3599179 C147.091099,11.5221433 147.126341,11.6833085 147.126341,11.8275089 C147.126341,12.4207452 146.687368,12.8878061 146.107427,12.8878061 C145.597451,12.8878061 145.246066,12.5824405 145.052752,12.1148495 L144.051458,9.75992944 L138.076348,9.75992944 L137.039813,12.1864195 C136.864638,12.6359855 136.495631,12.8878061 136.038519,12.8878061 C135.476199,12.8878061 135.036708,12.4387702 135.036708,11.863559 C135.036708,11.7013336 135.089571,11.5396382 135.177676,11.3599179 L135.177676,11.3599179 Z" id="Fill-30" fill="#596872"></path>
                <path d="M153.101296,2.26505983 L150.114,2.26505983 C149.551679,2.26505983 149.112706,1.79746878 149.112706,1.24028262 C149.112706,0.683626602 149.551679,0.216035549 150.114,0.216035549 L158.28501,0.216035549 C158.830228,0.216035549 159.268683,0.683626602 159.268683,1.24028262 C159.268683,1.79746878 158.830228,2.26505983 158.28501,2.26505983 L155.280093,2.26505983 L155.280093,11.7912998 C155.280093,12.4025611 154.788257,12.8876471 154.190695,12.8876471 C153.593132,12.8876471 153.101296,12.4025611 153.101296,11.7912998 L153.101296,2.26505983 Z" id="Fill-32" fill="#596872"></path>
                <path d="M164.365484,11.6834676 L164.365484,1.33019582 C164.365484,0.700909446 164.839699,0.215823489 165.454883,0.215823489 L172.605942,0.215823489 C173.133539,0.215823489 173.57303,0.665389491 173.57303,1.20402045 C173.57303,1.76173677 173.133539,2.19327772 172.605942,2.19327772 L166.526661,2.19327772 L166.526661,5.46429449 L171.815584,5.46429449 C172.343181,5.46429449 172.782154,5.91386049 172.782154,6.47104666 C172.782154,7.01020777 172.343181,7.44174872 171.815584,7.44174872 L166.526661,7.44174872 L166.526661,10.8209158 L172.694048,10.8209158 C173.221645,10.8209158 173.661136,11.2704818 173.661136,11.8091128 C173.661136,12.3662989 173.221645,12.79837 172.694048,12.79837 L165.454883,12.79837 C164.839699,12.79837 164.365484,12.3127539 164.365484,11.6834676" id="Fill-34" fill="#596872"></path>
                <g id="Group-38" transform="translate(178.564468, 0.036103)">
                    <mask id="mask-4" fill="white">
                        <use xlink:href="#path-3"></use>
                    </mask>
                    <g id="Clip-37"></g>
                    <path d="M0.421351745,11.3600239 C0.175174526,11.1797734 0,10.8744078 0,10.5149671 C0,9.93975584 0.45607569,9.49071999 1.01839628,9.49071999 C1.31743682,9.49071999 1.51075072,9.58084525 1.6512013,9.68846541 C2.67063412,10.5149671 3.75951483,10.9825581 5.0956093,10.9825581 C6.43066723,10.9825581 7.27440725,10.3352467 7.27440725,9.40059473 L7.27440725,9.36454463 C7.27440725,8.46594277 6.78205281,7.98085682 4.49752822,7.44116556 C1.87975742,6.79438428 0.403730639,6.00340259 0.403730639,3.68453267 L0.403730639,3.64848257 C0.403730639,1.49183812 2.16065858,0 4.60325486,0 C6.14976606,0 7.39723673,0.413515897 8.50425681,1.16791734 C8.74991576,1.31211775 8.97899014,1.61801349 8.97899014,2.04955443 C8.97899014,2.6242355 8.52187792,3.07327135 7.95955732,3.07327135 C7.74862231,3.07327135 7.57292952,3.01972635 7.39723673,2.91157604 C6.44828833,2.28281981 5.53458215,1.95942917 4.56801265,1.95942917 C3.30343914,1.95942917 2.56542575,2.6242355 2.56542575,3.4512673 L2.56542575,3.48678725 C2.56542575,4.45748931 3.12774635,4.88903026 5.49933994,5.46424148 C8.09948964,6.1115529 9.4355841,7.06369976 9.4355841,9.14877415 L9.4355841,9.18482426 C9.4355841,11.5397443 7.62527457,12.9414571 5.04274598,12.9414571 C3.37288703,12.9414571 1.79217015,12.4028262 0.421351745,11.3600239" id="Fill-36" fill="#596872" mask="url(#mask-4)"></path>
                </g>
                <path d="M21.906148,18.0877155 L16.4752194,16.5985281 L16.3829678,16.5741413 C16.3005632,16.5513449 16.222823,16.5412721 16.151302,16.5412721 C15.8470788,16.5412721 15.64029,16.7135704 15.5547758,16.8005147 C15.4500857,16.9076047 15.2189382,17.2050181 15.3329571,17.6450414 L16.3010814,21.3407072 C16.3015997,21.3417675 16.3015997,21.3422977 16.3015997,21.3428278 L18.8058699,30.9029973 C18.9209253,31.3440809 19.2676465,31.48351 19.4117249,31.522741 C19.5552851,31.561972 19.9232553,31.6186979 20.2388804,31.2958374 L24.282406,27.1596181 C24.4980054,26.9385461 24.5830013,26.6146254 24.5042246,26.313501 L23.60503,22.8807889 C23.5303994,22.6713802 23.4723534,22.4540192 23.4345198,22.2297664 L22.5120031,18.706929 C22.4332264,18.4058046 22.2005241,18.1682981 21.906148,18.0877155" id="Fill-39" fill="#B3D238"></path>
                <path d="M24.2621417,16.9166173 L27.6189625,17.8364251 C27.9128203,17.8804274 28.1957946,17.9578291 28.4632208,18.0681 L31.6977303,18.9545084 C31.9926247,19.035091 32.3092863,18.9481466 32.5248857,18.7276048 L36.5684113,14.5913856 C36.8840364,14.2685251 36.8291001,13.8921196 36.79023,13.7452684 C36.7518781,13.5984173 36.616092,13.2437479 36.1848931,13.1260549 L23.2256061,9.5735292 C23.1437198,9.55073281 23.0659796,9.54172028 22.9944586,9.54172028 C22.6902354,9.54172028 22.4829283,9.71348843 22.3979323,9.80043279 C22.292724,9.90805296 22.0615765,10.2054663 22.1761137,10.6454896 L23.144238,14.3411554 C23.144238,14.3416856 23.144238,14.3422157 23.1447563,14.343276 L23.6562866,16.2968736 C23.7350633,16.597998 23.9677656,16.8360347 24.2621417,16.9166173" id="Fill-41" fill="#DDE279"></path>
                <path d="M16.9188049,14.9036961 L20.4378434,15.8680364 C20.8695605,15.9862595 21.1603088,15.7492831 21.2655171,15.6416629 C21.3702072,15.5340428 21.601873,15.2366294 21.4873358,14.7966061 L20.5192115,11.1009403 C20.5192115,11.1004101 20.5192115,11.09988 20.5186932,11.0988197 L18.0144231,1.53918039 C17.8993676,1.09809677 17.5526464,0.958667688 17.408568,0.919436693 C17.3572594,0.905122681 17.2753731,0.888688075 17.1779388,0.888688075 C17.0058739,0.888688075 16.7825004,0.940112488 16.5814125,1.14634029 L12.5378869,5.28255956 C12.3222875,5.50310137 12.2372916,5.82702216 12.3160683,6.1286767 L14.3088081,13.7347185 C14.3875848,14.0358429 14.6192505,14.2738796 14.9146632,14.3544622 L16.8265532,14.878249 L16.9188049,14.9036961 Z" id="Fill-43" fill="#30AEB7"></path>
                <path d="M12.5580475,15.5254544 L5.12245897,13.487033 C5.04990147,13.4674175 4.97578918,13.4578749 4.90219514,13.4578749 C4.67726691,13.4578749 4.45752135,13.5480001 4.29530352,13.7139366 L0.251777912,17.8501559 C-0.0638471963,18.1730164 -0.00839253854,18.5494219 0.0299592808,18.6962731 C0.0683111002,18.8436544 0.204615539,19.1983238 0.635814373,19.3160168 L13.5945832,22.8685424 C14.0263003,22.9862354 14.3170485,22.7487288 14.4222569,22.6416388 C14.5274653,22.5340187 14.7586127,22.2366053 14.6440755,21.796582 L13.6759512,18.1009162 L13.6759512,18.0987956 L13.1639026,16.1451981 C13.0851259,15.8435435 12.8524236,15.6060369 12.5580475,15.5254544" id="Fill-45" fill="#79DBDB"></path>
                <path d="M9.71011397,8.78525127 C8.61294097,8.78525127 7.72048377,9.69869728 7.72048377,10.8210218 C7.72048377,11.9433464 8.61294097,12.8562623 9.71011397,12.8562623 C10.807287,12.8562623 11.7002624,11.9433464 11.7002624,10.8210218 C11.7002624,9.69869728 10.807287,8.78525127 9.71011397,8.78525127" id="Fill-47" fill="#62CBD3"></path>
                <path d="M25.0921477,21.5828261 C25.0921477,21.6745418 25.1004399,21.7641369 25.1113236,21.8526717 L25.2471097,22.3700967 C25.5492599,23.1027621 26.257732,23.6180665 27.0822961,23.6180665 C28.1794691,23.6180665 29.0724446,22.7051506 29.0724446,21.5828261 C29.0724446,20.7610958 28.5930468,20.0533474 27.9068602,19.7320774 L27.2652447,19.5565982 C27.2051256,19.5507665 27.14397,19.5470555 27.0822961,19.5470555 C25.9851231,19.5470555 25.0921477,20.4605015 25.0921477,21.5828261" id="Fill-49" fill="#CCE075"></path>
            </g>
        </g>
    </g>
</svg>